HIERARCHY
ROOT RootJoint
{
    OFFSET   0.000000   0.000000   0.000000
    CHANNELS 6 Xposition Yposition Zposition Xrotation Yrotation Zrotation
    JOINT pelvis_lowerback
    {
        OFFSET   0.000000   0.093605   0.000000
        CHANNELS 3 Xrotation Yrotation Zrotation
        JOINT lowerback_torso
        {
            OFFSET   0.000000   0.100000   0.000000
            CHANNELS 3 Xrotation Yrotation Zrotation
            JOINT torso_head
            {
                OFFSET   0.000000   0.282350   0.000000
                CHANNELS 3 Xrotation Yrotation Zrotation
                End Site
                {
                    OFFSET   0.000000   0.192650   0.000000
                }
            }
            JOINT rTorso_Clavicle
            {
                OFFSET  -0.001000   0.157500   0.000000
                CHANNELS 3 Xrotation Yrotation Zrotation
                JOINT rShoulder
                {
                    OFFSET  -0.117647   0.000000   0.000000
                    CHANNELS 3 Xrotation Yrotation Zrotation
                    JOINT rElbow
                    {
                        OFFSET  -0.245000   0.000000   0.000000
                        CHANNELS 3 Xrotation Yrotation Zrotation
                        JOINT rWrist
                        {
                            OFFSET  -0.240000   0.000000   0.000000
                            CHANNELS 3 Xrotation Yrotation Zrotation
                            End Site
                            {
                                OFFSET  -0.116353  -0.002500   0.000000
                            }
                        }
                    }
                }
            }
            JOINT lTorso_Clavicle
            {
                OFFSET   0.001000   0.157500   0.000000
                CHANNELS 3 Xrotation Yrotation Zrotation
                JOINT lShoulder
                {
                    OFFSET   0.117647   0.000000   0.000000
                    CHANNELS 3 Xrotation Yrotation Zrotation
                    JOINT lElbow
                    {
                        OFFSET   0.245000   0.000000   0.000000
                        CHANNELS 3 Xrotation Yrotation Zrotation
                        JOINT lWrist
                        {
                            OFFSET   0.240000   0.000000   0.000000
                            CHANNELS 3 Xrotation Yrotation Zrotation
                            End Site
                            {
                                OFFSET   0.116353  -0.002500   0.000000
                            }
                        }
                    }
                }
            }
        }
    }
    JOINT rHip
    {
        OFFSET  -0.100000  -0.051395   0.000000
        CHANNELS 3 Xrotation Yrotation Zrotation
        JOINT rKnee
        {
            OFFSET   0.000000  -0.410000   0.000000
            CHANNELS 3 Xrotation Yrotation Zrotation
            JOINT rAnkle
            {
                OFFSET   0.000000  -0.390000   0.000000
                CHANNELS 3 Xrotation Yrotation Zrotation
                JOINT rToeJoint
                {
                    OFFSET   0.000000  -0.050000   0.130000
                    CHANNELS 3 Xrotation Yrotation Zrotation
                    End Site
                    {
                        OFFSET  -0.010000   0.002000   0.060000
                    }
                }
            }
        }
    }
    JOINT lHip
    {
        OFFSET   0.100000  -0.051395   0.000000
        CHANNELS 3 Xrotation Yrotation Zrotation
        JOINT lKnee
        {
            OFFSET   0.000000  -0.410000   0.000000
            CHANNELS 3 Xrotation Yrotation Zrotation
            JOINT lAnkle
            {
                OFFSET   0.000000  -0.390000   0.000000
                CHANNELS 3 Xrotation Yrotation Zrotation
                JOINT lToeJoint
                {
                    OFFSET   0.000000  -0.050000   0.130000
                    CHANNELS 3 Xrotation Yrotation Zrotation
                    End Site
                    {
                        OFFSET   0.010000   0.002000   0.060000
                    }
                }
            }
        }
    }
}
MOTION
Frames: 17
Frame Time:   0.008333
 -2.274838   0.875240   4.008144 -167.288913  65.379527 168.190506  12.241462  -1.090316  -4.047398   0.604157  -1.673816  -4.372598  -1.181645   1.530982  -1.051738   2.973507  -2.427542   5.091579  13.972279   8.228734  45.609514   0.008811  59.131070  -0.009995   0.330210   4.894190  -0.873070  -5.011952   2.204455  -8.084573 -37.763825  10.401692 -29.745880   0.095339 -65.418118   0.083773  -5.781944  -4.288702  23.691903  -6.427578 -12.846436  -9.564552  35.317856  -0.000488   0.000087 -23.914170  -9.812538  -2.965752   1.525635  -0.000429   0.000173  -9.421418   4.160999  28.303421  16.548053  -0.000036   0.000041  22.290872   3.268262  -8.193767 -12.836158  -0.000303   0.001309
 -2.275791   0.875036   4.008834 -167.481541  65.598869 168.294819  12.297282  -1.016344  -4.055718   0.589074  -1.635782  -4.341039  -1.197803   1.736909  -1.034134   2.972324  -2.225639   5.015654  14.152493   8.583269  45.638574   0.011108  59.600547  -0.012820   0.323734   4.914642  -0.852836  -5.271975   1.916844  -7.939675 -38.813725  10.497400 -28.867502   0.093605 -64.350901   0.081138  -5.875147  -4.359493  24.049702  -6.726338 -12.654684  -9.481976  35.480745  -0.000450   0.000062 -23.861317  -9.789531  -2.857432   1.480377  -0.000288   0.000136  -9.555543   4.207134  28.423007  16.545113  -0.000027   0.000036  22.411582   3.267005  -8.277381 -13.136836  -0.000277   0.001247
 -2.276801   0.874849   4.009455 -167.697227  65.824852 168.412280  12.362396  -0.949304  -4.063365   0.573515  -1.598126  -4.299484  -1.213864   1.931475  -1.016310   2.966879  -2.029046   4.938100  14.316512   8.924245  45.663612   0.012770  60.053264  -0.014818   0.321638   5.020386  -0.800998  -5.536155   1.638588  -7.763557 -39.821382  10.559526 -28.014423   0.089880 -63.336591   0.076776  -6.003041  -4.331548  24.448562  -7.030354 -12.469995  -9.395614  35.625432  -0.000412   0.000028 -23.795872  -9.755757  -2.751167   1.439339  -0.000183   0.000106  -9.687734   4.248759  28.544434  16.532458  -0.000017   0.000042  22.520400   3.273461  -8.353846 -13.465098  -0.000239   0.001243
 -2.277842   0.874681   4.009973 -167.924029  66.046947 168.539088  12.432687  -0.888448  -4.068986   0.562447  -1.562568  -4.251613  -1.226887   2.112786  -1.000526   2.959275  -1.842453   4.863433  14.467036   9.244843  45.684904   0.013819  60.478437  -0.016020   0.320312   5.147979  -0.747410  -5.791519   1.375104  -7.577056 -40.773939  10.593863 -27.205619   0.084475 -62.392313   0.071143  -6.127551  -4.301690  24.850110  -7.328457 -12.294232  -9.313037  35.750980  -0.000369  -0.000003 -23.721937  -9.718257  -2.650881   1.403298  -0.000109   0.000083  -9.814544   4.286107  28.659425  16.514064  -0.000007   0.000055  22.617431   3.281148  -8.425616 -13.823373  -0.000214   0.001285
 -2.278895   0.874531   4.010377 -168.156886  66.262019 168.673814  12.505790  -0.833164  -4.071931   0.556298  -1.529867  -4.200404  -1.237379   2.281849  -0.986327   2.951781  -1.667299   4.792768  14.606869   9.544587  45.703435   0.014377  60.875804  -0.016587   0.319128   5.276187  -0.696554  -6.034213   1.126570  -7.391016 -41.669387  10.607510 -26.444665   0.078106 -61.514189   0.064908  -6.240963  -4.288282  25.241197  -7.617375 -12.126737  -9.237561  35.859325  -0.000324  -0.000029 -23.642255  -9.679899  -2.557404   1.372127  -0.000058   0.000066  -9.935247   4.319959  28.764822  16.492898   0.000001   0.000068  22.703008   3.287770  -8.493817 -14.213642  -0.000208   0.001362
 -2.279953   0.874397   4.010669 -168.392713  66.469097 168.814770  12.580318  -0.783104  -4.072292   0.554716  -1.500282  -4.147653  -1.245974   2.439561  -0.973219   2.945453  -1.503753   4.726671  14.737660   9.824283  45.720051   0.014547  61.246558  -0.016668   0.317917   5.398709  -0.647737  -6.262879   0.892685  -7.210933 -42.508599  10.605847 -25.731552   0.071312 -60.697034   0.058530  -6.343981  -4.289574  25.617985  -7.895822 -11.966875  -9.170112  35.952525  -0.000278  -0.000048 -23.558704  -9.641782  -2.470759   1.345447  -0.000025   0.000052 -10.049560   4.350855  28.860014  16.470697   0.000007   0.000080  22.777680   3.292465  -8.559039 -14.635996  -0.000224   0.001467
 -2.281005   0.874276   4.010858 -168.629449  66.667940 168.960302  12.655404  -0.737987  -4.070535   0.557226  -1.473849  -4.094569  -1.253114   2.586707  -0.960906   2.940689  -1.351439   4.665433  14.860426  10.085106  45.735376   0.014417  61.592239  -0.016383   0.316625   5.513783  -0.599962  -6.477271   0.672902  -7.039565 -43.293661  10.592799 -25.064856   0.064461 -59.936080   0.052298  -6.438444  -4.301368  25.979353  -8.163295 -11.814190  -9.110531  36.032419  -0.000234  -0.000061 -23.472637  -9.604337  -2.390653   1.322803  -0.000005   0.000041 -10.157470   4.379186  28.945451  16.448433   0.000010   0.000089  22.842124   3.295011  -8.621615 -15.088808  -0.000261   0.001590
 -2.282132   0.874124   4.011035 -168.946805  66.939122 169.191523  12.686962  -0.694775  -4.088197   0.555818  -1.449058  -4.060468  -1.281938   2.765760  -0.960842   2.930912  -1.168991   4.604059  15.066784  10.377129  45.656600   0.015942  62.118288  -0.018332   0.295105   5.536180  -0.511907  -6.728840   0.391972  -6.847552 -44.199975  10.539968 -24.185351   0.062791 -58.952095   0.049868  -6.549798  -4.300510  26.249882  -8.510843 -11.617109  -9.072801  36.143949  -0.000208  -0.000110 -23.376071  -9.537558  -2.248522   1.288988   0.000035   0.000031 -10.284797   4.465743  29.019034  16.405700   0.000015   0.000128  22.870320   3.349090  -8.695911 -15.480706  -0.000296   0.001544
 -2.283263   0.873975   4.011147 -169.275770  67.212991 169.427456  12.719782  -0.660647  -4.106793   0.546777  -1.425200  -4.021114  -1.309354   2.932623  -0.962857   2.915705  -0.994965   4.529677  15.255387  10.653181  45.571900   0.016636  62.621306  -0.019330   0.277392   5.628295  -0.411011  -6.984435   0.126592  -6.615613 -45.072535  10.457973 -23.328613   0.060297 -58.024364   0.046908  -6.683132  -4.240403  26.559741  -8.854865 -11.427771  -9.031241  36.242916  -0.000185  -0.000151 -23.273996  -9.461611  -2.111226   1.257817   0.000062   0.000024 -10.404078   4.549766  29.095389  16.356365   0.000019   0.000171  22.890095   3.406895  -8.764578 -15.925903  -0.000315   0.001576
 -2.284383   0.873839   4.011168 -169.607635  67.478391 169.665333  12.751814  -0.631628  -4.124155   0.535226  -1.403691  -3.977148  -1.333488   3.087815  -0.966391   2.898767  -0.832662   4.450418  15.429878  10.908889  45.485467   0.016718  63.092444  -0.019563   0.260914   5.735742  -0.325976  -7.232719  -0.124400  -6.369596 -45.898417  10.354385 -22.515696   0.056918 -57.163308   0.043487  -6.804971  -4.196519  26.877731  -9.185046 -11.248035  -8.990931  36.325717  -0.000160  -0.000175 -23.168312  -9.384864  -1.982437   1.230240   0.000076   0.000018 -10.515753   4.628669  29.167896  16.305782   0.000021   0.000208  22.902481   3.462208  -8.829575 -16.412277  -0.000346   0.001655
 -2.285484   0.873716   4.011094 -169.937964  67.732701 169.904068  12.782231  -0.606539  -4.139356   0.522640  -1.385041  -3.930651  -1.355089   3.232475  -0.970584   2.882169  -0.681967   4.370441  15.592663  11.145439  45.400025   0.016391  63.532252  -0.019254   0.245231   5.841308  -0.255463  -7.469818  -0.362159  -6.122875 -46.674932  10.237008 -21.751291   0.052959 -56.364183   0.039855  -6.911070  -4.177913  27.190458  -9.499199 -11.077121  -8.955059  36.393516  -0.000135  -0.000185 -23.060690  -9.309918  -1.862745   1.206350   0.000081   0.000014 -10.620092   4.702768  29.233382  16.256465   0.000021   0.000236  22.908164   3.513138  -8.891740 -16.933231  -0.000397   0.001762
 -2.286563   0.873606   4.010931 -170.263967  67.975458 170.142209  12.810868  -0.584918  -4.152154   0.509749  -1.369281  -3.883003  -1.374778   3.367418  -0.974893   2.866736  -0.542088   4.292307  15.745057  11.364623  45.317330   0.015795  63.942490  -0.018570   0.230198   5.940960  -0.194851  -7.694106  -0.587239  -5.882562 -47.402328  10.111556 -21.035882   0.048695 -55.621677   0.036195  -7.003949  -4.179188  27.493064  -9.797067 -10.914242  -8.924681  36.448164  -0.000110  -0.000184 -22.952363  -9.237595  -1.751962   1.185953   0.000079   0.000011 -10.717294   4.772429  29.291086  16.209620   0.000018   0.000253  22.907768   3.559109  -8.951493 -17.483683  -0.000469   0.001884
 -2.287617   0.873506   4.010688 -170.583806  68.206796 170.378291  12.837874  -0.566464  -4.162705   0.497070  -1.356264  -3.835142  -1.392941   3.493324  -0.979026   2.852761  -0.412135   4.217591  15.887912  11.568124  45.238440   0.015025  64.325094  -0.017640   0.215741   6.034241  -0.140656  -7.905058  -0.800109  -5.652462 -48.082166   9.982042 -20.368215   0.044338 -54.931068   0.032629  -7.086520  -4.194300  27.783688 -10.079044 -10.758853  -8.899792  36.491507  -0.000088  -0.000176 -22.844258  -9.168120  -1.649601   1.168747   0.000074   0.000008 -10.807667   4.837942  29.341305  16.165755   0.000014   0.000261  22.901914   3.600129  -9.009044 -18.058756  -0.000558   0.002013
 -2.288678   0.873406   4.010404 -170.938581  68.503615 170.656705  12.831905  -0.548834  -4.191666   0.484313  -1.336462  -3.804992  -1.431184   3.655151  -0.985342   2.846810  -0.259503   4.167640  16.145056  11.798154  45.063021   0.016152  64.885296  -0.019138   0.189251   6.054577  -0.093127  -8.131102  -1.064993  -5.412030 -48.837730   9.809517 -19.515362   0.043490 -54.032129   0.031345  -7.176154  -4.223804  27.981036 -10.401722 -10.570892  -8.890685  36.544867  -0.000074  -0.000193 -22.725187  -9.062118  -1.509141   1.144841   0.000080   0.000006 -10.894649   4.964037  29.379957  16.109334   0.000008   0.000293  22.806788   3.702424  -9.049227 -18.386729  -0.000496   0.001831
 -2.289722   0.873318   4.010055 -171.297730  68.801957 170.934423  12.824405  -0.537723  -4.221953   0.466188  -1.316691  -3.770031  -1.468105   3.806313  -0.992732   2.844099  -0.119660   4.112352  16.388722  12.013849  44.895114   0.016620  65.418479  -0.019774   0.166225   6.139213  -0.017261  -8.354770  -1.309243  -5.145040 -49.559387   9.623258 -18.690923   0.042065 -53.184479   0.029762  -7.286845  -4.199835  28.206322 -10.713866 -10.389421  -8.877463  36.582602  -0.000061  -0.000194 -22.600981  -8.949011  -1.375264   1.123313   0.000081   0.000004 -10.973768   5.087292  29.421018  16.052713   0.000002   0.000323  22.711428   3.806681  -9.085435 -18.773004  -0.000443   0.001747
 -2.290749   0.873242   4.009629 -171.655281  69.090965 171.210427  12.815990  -0.530027  -4.251028   0.446463  -1.299120  -3.730987  -1.501792   3.946924  -1.001116   2.843494   0.007321   4.056087  16.618618  12.212033  44.735377   0.016572  65.916732  -0.019721   0.144255   6.233737   0.056039  -8.569395  -1.537033  -4.872095 -50.239123   9.428282 -17.911569   0.039979 -52.396889   0.027869  -7.388874  -4.185248  28.440414 -11.010279 -10.215894  -8.865019  36.605717  -0.000049  -0.000179 -22.474398  -8.837126  -1.250514   1.104865   0.000077   0.000003 -11.046550   5.203507  29.459021  15.999231  -0.000004   0.000342  22.616363   3.904965  -9.120059 -19.206826  -0.000419   0.001737
 -2.291760   0.873177   4.009128 -172.008017  69.367824 171.484018  12.807043  -0.524918  -4.277654   0.426388  -1.284330  -3.689606  -1.532723   4.077990  -1.009774   2.844653   0.123175   4.000725  16.835343  12.394239  44.584101   0.016169  66.381255  -0.019192   0.123131   6.323307   0.122988  -8.772927  -1.751154  -4.603449 -50.875940   9.229968 -17.180522   0.037426 -51.665289   0.025797  -7.478013  -4.188629  28.672564 -11.290607 -10.049903  -8.855934  36.616817  -0.000039  -0.000155 -22.347211  -8.728971  -1.135076   1.089523   0.000070   0.000002 -11.113539   5.312698  29.491505  15.949628  -0.000010   0.000350  22.521617   3.995576  -9.153814 -19.681779  -0.000429   0.001780
